<svg width="400" height="300" viewBox="0 0 400 300" xmlns="http://www.w3.org/2000/svg">
  <defs>
    <linearGradient id="grad2" x1="0%" y1="0%" x2="100%" y2="100%">
      <stop offset="0%" style="stop-color:#9333ea;stop-opacity:1" />
      <stop offset="100%" style="stop-color:#7c3aed;stop-opacity:1" />
    </linearGradient>
  </defs>
  <rect width="400" height="300" fill="url(#grad2)"/>
  <g transform="translate(100, 60)">
    <rect x="0" y="0" width="80" height="120" rx="12" fill="white" opacity="0.2"/>
    <rect x="10" y="10" width="60" height="100" rx="8" fill="white" opacity="0.3"/>
    <rect x="20" y="20" width="40" height="15" rx="4" fill="white" opacity="0.5"/>
    <rect x="20" y="40" width="40" height="8" rx="4" fill="white" opacity="0.4"/>
    <rect x="20" y="55" width="30" height="8" rx="4" fill="white" opacity="0.4"/>
    <circle cx="40" cy="90" r="8" fill="white" opacity="0.6"/>
    <rect x="120" y="0" width="80" height="120" rx="12" fill="white" opacity="0.2"/>
    <rect x="130" y="10" width="60" height="100" rx="8" fill="white" opacity="0.3"/>
    <rect x="140" y="20" width="40" height="15" rx="4" fill="white" opacity="0.5"/>
    <rect x="140" y="40" width="40" height="8" rx="4" fill="white" opacity="0.4"/>
    <rect x="140" y="55" width="30" height="8" rx="4" fill="white" opacity="0.4"/>
    <circle cx="160" cy="90" r="8" fill="white" opacity="0.6"/>
    <text x="100" y="200" font-family="Arial, sans-serif" font-size="24" font-weight="bold" fill="white" text-anchor="middle">App Development</text>
  </g>
</svg>

