<svg width="400" height="300" viewBox="0 0 400 300" xmlns="http://www.w3.org/2000/svg">
  <defs>
    <linearGradient id="grad3" x1="0%" y1="0%" x2="100%" y2="100%">
      <stop offset="0%" style="stop-color:#6366f1;stop-opacity:1" />
      <stop offset="100%" style="stop-color:#4f46e5;stop-opacity:1" />
    </linearGradient>
  </defs>
  <rect width="400" height="300" fill="url(#grad3)"/>
  <g transform="translate(100, 80)">
    <path d="M 50 80 Q 20 80 20 110 Q 20 140 50 140 L 150 140 Q 180 140 180 110 Q 180 80 150 80 L 140 80 Q 130 60 110 50 Q 90 40 70 50 Q 60 60 50 80 Z" fill="white" opacity="0.3"/>
    <path d="M 80 100 Q 60 100 60 120 Q 60 140 80 140 L 120 140 Q 140 140 140 120 Q 140 100 120 100 L 115 100 Q 110 90 100 85 Q 90 80 80 85 Q 75 90 80 100 Z" fill="white" opacity="0.4"/>
    <circle cx="100" cy="110" r="15" fill="white" opacity="0.5"/>
    <circle cx="130" cy="100" r="12" fill="white" opacity="0.4"/>
    <circle cx="70" cy="105" r="10" fill="white" opacity="0.4"/>
    <text x="100" y="200" font-family="Arial, sans-serif" font-size="24" font-weight="bold" fill="white" text-anchor="middle">Cloud Computing</text>
  </g>
</svg>

