<svg width="400" height="300" viewBox="0 0 400 300" xmlns="http://www.w3.org/2000/svg">
  <defs>
    <linearGradient id="grad6" x1="0%" y1="0%" x2="100%" y2="100%">
      <stop offset="0%" style="stop-color:#f59e0b;stop-opacity:1" />
      <stop offset="100%" style="stop-color:#d97706;stop-opacity:1" />
    </linearGradient>
  </defs>
  <rect width="400" height="300" fill="url(#grad6)"/>
  <g transform="translate(100, 60)">
    <rect x="0" y="0" width="100" height="80" rx="8" fill="white" opacity="0.2"/>
    <rect x="10" y="10" width="80" height="60" rx="4" fill="white" opacity="0.3"/>
    <circle cx="30" cy="30" r="8" fill="white" opacity="0.4"/>
    <rect x="50" y="25" width="30" height="8" rx="4" fill="white" opacity="0.4"/>
    <rect x="50" y="40" width="20" height="8" rx="4" fill="white" opacity="0.4"/>
    <rect x="120" y="0" width="80" height="80" rx="8" fill="white" opacity="0.2"/>
    <rect x="130" y="10" width="60" height="60" rx="4" fill="white" opacity="0.3"/>
    <circle cx="150" cy="30" r="8" fill="white" opacity="0.4"/>
    <rect x="170" y="25" width="30" height="8" rx="4" fill="white" opacity="0.4"/>
    <rect x="170" y="40" width="20" height="8" rx="4" fill="white" opacity="0.4"/>
    <path d="M 50 100 L 70 120 L 150 120 L 170 100" stroke="white" stroke-width="3" fill="none" opacity="0.4"/>
    <text x="100" y="180" font-family="Arial, sans-serif" font-size="24" font-weight="bold" fill="white" text-anchor="middle">E-commerce</text>
  </g>
</svg>

