<svg width="800" height="500" viewBox="0 0 800 500" xmlns="http://www.w3.org/2000/svg">
  <defs>
    <linearGradient id="port1" x1="0%" y1="0%" x2="100%" y2="100%">
      <stop offset="0%" style="stop-color:#8b5cf6;stop-opacity:1" />
      <stop offset="100%" style="stop-color:#7c3aed;stop-opacity:1" />
    </linearGradient>
  </defs>
  <rect width="800" height="500" fill="url(#port1)"/>
  <g transform="translate(100, 100)">
    <rect x="0" y="0" width="200" height="150" rx="12" fill="white" opacity="0.15"/>
    <rect x="20" y="20" width="160" height="30" rx="6" fill="white" opacity="0.25"/>
    <rect x="20" y="60" width="140" height="20" rx="4" fill="white" opacity="0.2"/>
    <rect x="20" y="90" width="120" height="20" rx="4" fill="white" opacity="0.2"/>
    <circle cx="100" cy="130" r="30" fill="white" opacity="0.2"/>
    <rect x="250" y="0" width="200" height="150" rx="12" fill="white" opacity="0.15"/>
    <rect x="270" y="20" width="160" height="30" rx="6" fill="white" opacity="0.25"/>
    <rect x="270" y="60" width="140" height="20" rx="4" fill="white" opacity="0.2"/>
    <rect x="270" y="90" width="120" height="20" rx="4" fill="white" opacity="0.2"/>
    <circle cx="350" cy="130" r="30" fill="white" opacity="0.2"/>
    <rect x="500" y="0" width="200" height="150" rx="12" fill="white" opacity="0.15"/>
    <rect x="520" y="20" width="160" height="30" rx="6" fill="white" opacity="0.25"/>
    <rect x="520" y="60" width="140" height="20" rx="4" fill="white" opacity="0.2"/>
    <rect x="520" y="90" width="120" height="20" rx="4" fill="white" opacity="0.2"/>
    <circle cx="600" cy="130" r="30" fill="white" opacity="0.2"/>
    <text x="400" y="350" font-family="Arial, sans-serif" font-size="48" font-weight="bold" fill="white" text-anchor="middle" opacity="0.9">EdTech Platform</text>
    <text x="400" y="400" font-family="Arial, sans-serif" font-size="24" fill="white" text-anchor="middle" opacity="0.7">Learning at scale with engaging UX</text>
  </g>
</svg>

