<svg width="800" height="500" viewBox="0 0 800 500" xmlns="http://www.w3.org/2000/svg">
  <defs>
    <linearGradient id="port5" x1="0%" y1="0%" x2="100%" y2="100%">
      <stop offset="0%" style="stop-color:#0ea5e9;stop-opacity:1" />
      <stop offset="100%" style="stop-color:#0284c7;stop-opacity:1" />
    </linearGradient>
  </defs>
  <rect width="800" height="500" fill="url(#port5)"/>
  <g transform="translate(100, 80)">
    <rect x="0" y="0" width="180" height="140" rx="12" fill="white" opacity="0.15"/>
    <rect x="20" y="20" width="140" height="30" rx="6" fill="white" opacity="0.25"/>
    <rect x="20" y="60" width="120" height="20" rx="4" fill="white" opacity="0.2"/>
    <rect x="20" y="90" width="100" height="20" rx="4" fill="white" opacity="0.2"/>
    <circle cx="90" cy="120" r="15" fill="white" opacity="0.25"/>
    <rect x="220" y="0" width="180" height="140" rx="12" fill="white" opacity="0.15"/>
    <rect x="240" y="20" width="140" height="30" rx="6" fill="white" opacity="0.25"/>
    <rect x="240" y="60" width="120" height="20" rx="4" fill="white" opacity="0.2"/>
    <rect x="240" y="90" width="100" height="20" rx="4" fill="white" opacity="0.2"/>
    <circle cx="310" cy="120" r="15" fill="white" opacity="0.25"/>
    <rect x="440" y="0" width="180" height="140" rx="12" fill="white" opacity="0.15"/>
    <rect x="460" y="20" width="140" height="30" rx="6" fill="white" opacity="0.25"/>
    <rect x="460" y="60" width="120" height="20" rx="4" fill="white" opacity="0.2"/>
    <rect x="460" y="90" width="100" height="20" rx="4" fill="white" opacity="0.2"/>
    <circle cx="530" cy="120" r="15" fill="white" opacity="0.25"/>
    <rect x="0" y="170" width="600" height="200" rx="16" fill="white" opacity="0.1"/>
    <rect x="30" y="200" width="540" height="40" rx="8" fill="white" opacity="0.2"/>
    <rect x="30" y="260" width="170" height="90" rx="8" fill="white" opacity="0.15"/>
    <rect x="220" y="260" width="170" height="90" rx="8" fill="white" opacity="0.15"/>
    <rect x="410" y="260" width="160" height="90" rx="8" fill="white" opacity="0.15"/>
    <text x="300" y="420" font-family="Arial, sans-serif" font-size="48" font-weight="bold" fill="white" text-anchor="middle" opacity="0.9">Tech Marketplace</text>
    <text x="300" y="450" font-family="Arial, sans-serif" font-size="24" fill="white" text-anchor="middle" opacity="0.7">Scale-ready marketplaces</text>
  </g>
</svg>

