<svg width="800" height="500" viewBox="0 0 800 500" xmlns="http://www.w3.org/2000/svg">
  <defs>
    <linearGradient id="port4" x1="0%" y1="0%" x2="100%" y2="100%">
      <stop offset="0%" style="stop-color:#f59e0b;stop-opacity:1" />
      <stop offset="100%" style="stop-color:#d97706;stop-opacity:1" />
    </linearGradient>
  </defs>
  <rect width="800" height="500" fill="url(#port4)"/>
  <g transform="translate(150, 100)">
    <rect x="0" y="0" width="500" height="300" rx="16" fill="white" opacity="0.1"/>
    <rect x="30" y="30" width="440" height="50" rx="8" fill="white" opacity="0.2"/>
    <rect x="30" y="100" width="150" height="180" rx="8" fill="white" opacity="0.15"/>
    <rect x="200" y="100" width="150" height="180" rx="8" fill="white" opacity="0.15"/>
    <rect x="370" y="100" width="100" height="180" rx="8" fill="white" opacity="0.15"/>
    <circle cx="105" cy="200" r="25" fill="white" opacity="0.25"/>
    <circle cx="275" cy="200" r="25" fill="white" opacity="0.25"/>
    <circle cx="420" cy="200" r="20" fill="white" opacity="0.25"/>
    <path d="M 80 220 L 105 200 L 130 220" stroke="white" stroke-width="3" fill="none" opacity="0.3"/>
    <path d="M 250 220 L 275 200 L 300 220" stroke="white" stroke-width="3" fill="none" opacity="0.3"/>
    <text x="250" y="450" font-family="Arial, sans-serif" font-size="48" font-weight="bold" fill="white" text-anchor="middle" opacity="0.9">FoodTech Delivery</text>
    <text x="250" y="480" font-family="Arial, sans-serif" font-size="24" fill="white" text-anchor="middle" opacity="0.7">Delightful ordering experiences</text>
  </g>
</svg>

